<svg xmlns="http://www.w3.org/2000/svg" xmlns:xlink="http://www.w3.org/1999/xlink" viewBox="0 0 173.81 172.87"><defs><style>.cls-1{fill:none;}.cls-2{fill:url(#linear-gradient);}.cls-3{clip-path:url(#clip-path);}.cls-4{fill:url(#linear-gradient-2);}</style><linearGradient id="linear-gradient" x1="21.13" y1="66.3" x2="192.37" y2="66.3" gradientTransform="translate(39.09 205.9) rotate(-90)" gradientUnits="userSpaceOnUse"><stop offset="0" stop-color="#0080c2"/><stop offset="0.22" stop-color="#74a757"/><stop offset="0.33" stop-color="#a8b928"/><stop offset="0.47" stop-color="#8ac943"/><stop offset="0.77" stop-color="#64c6dc"/><stop offset="1" stop-color="#4aeb7d"/></linearGradient><clipPath id="clip-path" transform="translate(-18.49 -12.72)"><path id="SVGID" class="cls-1" d="M42.72,173.39c-6-6.71-24.25-27.59-20-33.42,1.1-1.5,7.37-.91,19.88.32,12.29,1.2,18.44,1.81,18.58,1.84,14.75,3.68,15.4,12.44,35.61,22,10.78,5.11,15.91,5.14,19.8,3.39,3.64-1.64,7.47-5.4,7.23-9.27-.34-5.66-9.28-9.09-14.82-11.21-12.22-4.68-15.7-1.61-25.67-4.92-12.2-4.05-10.38-9.78-24.12-16.37-14.37-6.89-18.87-1.83-28.84-8.49-8.24-5.5-18.46-17.85-15-30.32,2.85-10.43,14-16.39,22.76-17.59,15.72-2.14,28.05,10.46,32.75,15.25,8,8.23,6,11.15,15.61,22.82,8.41,10.2,15.46,18.75,26.2,21,13.53,2.77,18.72-7.42,30.11-3.28,9.26,3.37,8.21,11,19.63,17.11,10.38,5.57,23.43,5.79,25,2.3,1.66-3.74-9.69-12.33-17.53-18.27-6.33-4.79-11.43-8.65-18.3-11.63-17.2-7.47-24.83-.46-39.55-4.81C91,103.59,76,80.27,79.92,73.89,82.83,69.13,98.17,70.75,109,77c12.08,6.9,12.76,16.16,23.69,18.41,7.59,1.57,16.83-.93,18-5.23.9-3.35-3.26-7.18-4.89-8.69-7.64-7-14.25-4.71-23.6-8.94-11.14-5-7.89-11.09-20.77-19.41C91.11,46.43,87.55,49.35,76,42.31c-3.22-2-19.44-11.8-17.78-18.58,2.11-8.58,33.89-16.16,56-3.68C127,27.3,130.49,37.93,147.71,42.68c4.31,1.19,14.6,4,18.28-.43,4.93-6-3.15-23.7-15.83-33.22C139.9,1.32,128.8.62,118.94.13A108,108,0,0,0,62.46,13.29c-25.7,14.53-37.7,36-45.89,50.54C7.64,79.77.69,92.14.05,110.17-1.43,151.79,31.78,178,34.39,180c10.94,8.35,24.13,13.75,25.25,12.15C60.55,190.86,53.38,185.28,42.72,173.39Z"/></clipPath><linearGradient id="linear-gradient-2" x1="21.13" y1="66.3" x2="192.37" y2="66.3" gradientTransform="translate(39.09 205.9) rotate(-90)" gradientUnits="userSpaceOnUse"><stop offset="0" stop-color="#d7f4cc"/><stop offset="0.06" stop-color="#d7f0c3"/><stop offset="0.17" stop-color="#d7e6a9"/><stop offset="0.31" stop-color="#d7d680"/><stop offset="0.46" stop-color="#d7bf47"/><stop offset="0.57" stop-color="#d7af1e"/><stop offset="1" stop-color="#00e85d"/></linearGradient></defs><title>Asset 1</title><g id="Layer_2" data-name="Layer 2"><g id="Planet_7" data-name="Planet 7"><ellipse class="cls-2" cx="105.39" cy="99.15" rx="87.7" ry="85.62" transform="translate(-57.3 74.36) rotate(-38.47)"/><g class="cls-3"><ellipse class="cls-4" cx="105.39" cy="99.15" rx="87.7" ry="85.62" transform="translate(-57.3 74.36) rotate(-38.47)"/><ellipse class="cls-1" cx="105.39" cy="99.15" rx="87.7" ry="85.62" transform="translate(-57.3 74.36) rotate(-38.47)"/></g></g></g></svg>