<svg xmlns="http://www.w3.org/2000/svg" xmlns:xlink="http://www.w3.org/1999/xlink" viewBox="0 0 173.59 173.07"><defs><style>.cls-1{fill:none;}.cls-2{fill:url(#linear-gradient);}.cls-3{clip-path:url(#clip-path);}.cls-4{fill:url(#linear-gradient-2);}</style><linearGradient id="linear-gradient" x1="-7.37" y1="56.11" x2="163.87" y2="56.11" gradientTransform="translate(142.9 17.32) rotate(90)" gradientUnits="userSpaceOnUse"><stop offset="0" stop-color="#ebaf2d"/><stop offset="0.67" stop-color="#972020"/><stop offset="1" stop-color="#8600e0"/></linearGradient><clipPath id="clip-path" transform="translate(0 -9.03)"><path id="SVGID" class="cls-1" d="M145.55,18.2c6.36,6.4,25.65,26.3,21.71,32.34-1,1.56-7.31,1.3-19.86.71-12.34-.57-18.51-.86-18.65-.88-14.92-2.91-16-11.63-36.71-20.16-11-4.55-16.15-4.32-20-2.37-3.54,1.83-7.17,5.78-6.74,9.63.63,5.64,9.74,8.6,15.38,10.43,12.45,4.05,15.77.8,25.89,3.6,12.4,3.41,10.87,9.22,24.93,15.09,14.71,6.15,18.95.86,29.24,7,8.52,5.07,19.36,16.87,16.58,29.5-2.31,10.56-13.12,17.09-21.83,18.74-15.59,3-28.55-9-33.48-13.54-8.47-7.8-6.56-10.82-16.77-22C96.36,76.56,88.88,68.38,78,66.74c-13.65-2.07-18.31,8.38-29.9,4.83C38.72,68.68,39.37,61,27.66,55.49,17,50.47,4,50.92,2.6,54.48,1.13,58.31,12.91,66.3,21.05,71.83c6.57,4.45,11.86,8,18.87,10.67,17.57,6.57,24.82-.83,39.75,2.76,21.32,5.13,37.43,27.66,33.87,34.22-2.66,4.91-18.07,4.08-29.21-1.55-12.42-6.27-13.58-15.48-24.61-17.17C52.06,99.59,43,102.56,42,106.92c-.74,3.39,3.62,7,5.33,8.42,8,6.63,14.47,4,24,7.72,11.38,4.45,8.45,10.67,21.75,18.31,10.64,6.12,14,3,26,9.45,3.32,1.79,20,10.79,18.71,17.64-1.65,8.68-33,17.89-55.68,6.56-13.17-6.58-17.26-17-34.7-20.87-4.36-1-14.79-3.27-18.23,1.37-4.62,6.22,4.36,23.51,17.51,32.36,10.65,7.17,21.77,7.3,31.65,7.29a108.06,108.06,0,0,0,55.72-16.06c24.92-15.84,35.8-37.85,43.22-52.85,8.1-16.37,14.4-29.09,14.11-47.13-.67-41.63-35.19-66.12-37.9-68C142.18,3.39,128.73-1.33,127.69.33,126.85,1.68,134.3,6.87,145.55,18.2Z"/></clipPath><linearGradient id="linear-gradient-2" x1="-7.37" y1="56.11" x2="163.87" y2="56.11" gradientTransform="translate(142.9 17.32) rotate(90)" gradientUnits="userSpaceOnUse"><stop offset="0" stop-color="#fd9e50"/><stop offset="1" stop-color="#fccf81"/></linearGradient></defs><title>Asset 3</title><g id="Layer_2" data-name="Layer 2"><g id="Planet_5" data-name="Planet 5"><ellipse class="cls-2" cx="86.8" cy="95.57" rx="87.7" ry="85.62" transform="translate(-41.52 72.3) rotate(-41.42)"/><g class="cls-3"><ellipse class="cls-4" cx="86.8" cy="95.57" rx="87.7" ry="85.62" transform="translate(-41.52 72.3) rotate(-41.42)"/><ellipse class="cls-1" cx="86.8" cy="95.57" rx="87.7" ry="85.62" transform="translate(-41.52 72.3) rotate(-41.42)"/></g></g></g></svg>