<svg xmlns="http://www.w3.org/2000/svg" xmlns:xlink="http://www.w3.org/1999/xlink" viewBox="0 0 174.56 172.17"><defs><style>.cls-1{fill:none;}.cls-2{fill:url(#linear-gradient);}.cls-3{clip-path:url(#clip-path);}.cls-4{fill:url(#linear-gradient-2);}</style><linearGradient id="linear-gradient" x1="19.77" y1="81.34" x2="191.02" y2="81.34" gradientTransform="translate(26.12 203) rotate(-90)" gradientUnits="userSpaceOnUse"><stop offset="0" stop-color="#51aafd"/><stop offset="1" stop-color="#fb0314"/></linearGradient><clipPath id="clip-path" transform="translate(-20.18 -11.52)"><path id="SVGID" class="cls-1" d="M31.75,158.49c-4.62-7.74-18.53-31.72-13.25-36.63,1.36-1.26,7.41.51,19.45,4.11,11.83,3.53,17.75,5.3,17.88,5.36,13.78,6.43,12.74,15.15,30.75,28.43,9.6,7.08,14.63,8.09,18.78,7.11,3.88-.91,8.36-3.87,8.87-7.71.75-5.63-7.37-10.7-12.4-13.84-11.11-6.93-15.11-4.59-24.26-9.74C66.37,129.27,69.25,124,57,114.91c-12.79-9.52-18.18-5.41-26.69-13.85-7-7-14.7-21-9-32.64C26.18,58.73,38.24,55,47.09,55.51c15.84.91,25.53,15.63,29.22,21.23,6.34,9.61,3.75,12.09,11,25.39,6.3,11.61,11.59,21.35,21.71,25.57,12.75,5.3,19.79-3.71,30.18,2.53,8.44,5.08,6,12.36,16,20.55,9.13,7.45,21.89,10.16,24.07,7,2.34-3.36-7.15-14-13.72-21.29-5.3-5.91-9.56-10.67-15.74-14.91-15.45-10.62-24.28-5.19-37.9-12.28C92.43,99.2,82.24,73.45,87.28,67.94c3.77-4.13,18.52.4,28,8.56,10.53,9.08,9.43,18.3,19.73,22.6,7.15,3,16.69,2.3,18.65-1.69,1.53-3.12-1.82-7.68-3.14-9.47-6.15-8.37-13.08-7.35-21.45-13.29-10-7.08-5.62-12.4-16.68-23-8.85-8.5-12.91-6.31-22.93-15.44-2.79-2.54-16.83-15.3-13.9-21.63,3.7-8,36.35-9.39,55.62,7.07,11.19,9.57,12.64,20.69,28.63,28.64,4,2,13.56,6.74,18,3.07,6-4.92,1.44-23.86-9.18-35.63C160,8.17,149.27,5.36,139.68,3A107.88,107.88,0,0,0,81.73,5.11C53.73,14.46,37.85,33.19,27,46,15.21,59.88,6,70.7,2,88.28c-9.41,40.56,18.18,72.66,20.36,75.11,9.14,10.29,21.05,18.11,22.46,16.75C45.91,179,39.94,172.2,31.75,158.49Z"/></clipPath><linearGradient id="linear-gradient-2" x1="19.77" y1="81.34" x2="191.02" y2="81.34" gradientTransform="translate(26.12 203) rotate(-90)" gradientUnits="userSpaceOnUse"><stop offset="0" stop-color="#fd9250"/><stop offset="1" stop-color="#fb2b93"/></linearGradient></defs><title>Asset 6</title><g id="Layer_2" data-name="Layer 2"><g id="Planet_2" data-name="Planet 2"><ellipse class="cls-2" cx="107.46" cy="97.6" rx="87.7" ry="85.62" transform="translate(-53.07 48.99) rotate(-27.44)"/><g class="cls-3"><ellipse class="cls-4" cx="107.46" cy="97.6" rx="87.7" ry="85.62" transform="translate(-53.07 48.99) rotate(-27.44)"/><ellipse class="cls-1" cx="107.46" cy="97.6" rx="87.7" ry="85.62" transform="translate(-53.07 48.99) rotate(-27.44)"/></g></g></g></svg>