<svg xmlns="http://www.w3.org/2000/svg" xmlns:xlink="http://www.w3.org/1999/xlink" viewBox="0 0 172.02 174.72"><defs><style>.cls-1{fill:none;}.cls-2{fill:url(#linear-gradient);}.cls-3{clip-path:url(#clip-path);}.cls-4{fill:url(#linear-gradient-2);}</style><linearGradient id="linear-gradient" x1="3.02" y1="63.73" x2="174.27" y2="63.73" gradientTransform="translate(157.35 17) rotate(90)" gradientUnits="userSpaceOnUse"><stop offset="0" stop-color="#eb8a4a"/><stop offset="1" stop-color="#a33e00"/></linearGradient><clipPath id="clip-path" transform="translate(-7.62 -18.29)"><path id="SVGID" class="cls-1" d="M116.07,11.12c8.4,3.28,34.08,13.67,32.93,20.79-.3,1.84-6.16,4.15-17.88,8.69-11.52,4.47-17.27,6.7-17.41,6.73C98.88,50.71,94.35,43.18,72,43.74c-11.93.3-16.52,2.59-19.21,5.91-2.5,3.1-4.22,8.19-2.27,11.53,2.86,4.91,12.38,3.93,18.29,3.33,13-1.34,14.74-5.65,25.13-7.19,12.72-1.89,13.67,4,28.9,3.72,15.94-.33,17.68-6.88,29.58-5.44,9.83,1.2,24.52,7.61,27.1,20.29,2.15,10.59-5.1,20.93-12.39,26-13.06,9-29.75,3.33-36.1,1.16-10.9-3.7-10.37-7.24-24.23-13.32C94.69,84.38,84.53,79.93,74,82.82,60.64,86.45,60.6,97.89,48.57,99.33c-9.79,1.17-12.29-6.11-25.24-6.42C11.55,92.63-.19,98.32,0,102.13c.21,4.09,14.22,6.63,23.9,8.4,7.8,1.41,14.1,2.56,21.57,2.12,18.72-1.1,22.37-10.8,37.47-13.55,21.57-3.93,45.42,10.15,44.82,17.59-.45,5.57-14.87,11-27.34,10.41-13.9-.72-18.68-8.68-29.46-5.75-7.47,2-14.59,8.42-13.69,12.78.71,3.4,6.15,4.94,8.29,5.55,10,2.83,14.84-2.22,25.1-2.66,12.21-.54,12,6.34,27.29,7.95,12.21,1.28,14.07-2.93,27.58-1.88,3.77.3,22.68,1.77,24.26,8.56,2,8.62-22.95,29.72-48.27,28.54-14.71-.69-22.67-8.59-40.18-5.05-4.38.88-14.85,3-16.12,8.62-1.7,7.56,13.5,19.73,29.11,22.51,12.64,2.25,22.86-2.13,31.89-6.14a108,108,0,0,0,44.46-37.22c16.38-24.57,17.43-49.1,18.15-65.82.78-18.25,1.41-32.43-6.16-48.81-17.46-37.8-58.93-46.23-62.16-46.83C107-1.06,92.78.07,92.5,2,92.28,3.57,101.19,5.31,116.07,11.12Z"/></clipPath><linearGradient id="linear-gradient-2" x1="3.02" y1="63.73" x2="174.27" y2="63.73" gradientTransform="translate(157.35 17) rotate(90)" gradientUnits="userSpaceOnUse"><stop offset="0" stop-color="#ecfd50"/><stop offset="1" stop-color="#fc2008"/></linearGradient></defs><title>Asset 2</title><g id="Layer_2" data-name="Layer 2"><g id="Planet_6" data-name="Planet 6"><ellipse class="cls-2" cx="93.63" cy="105.64" rx="87.7" ry="85.62" transform="translate(-49.11 128.23) rotate(-65.28)"/><g class="cls-3"><ellipse class="cls-4" cx="93.63" cy="105.64" rx="87.7" ry="85.62" transform="translate(-49.11 128.23) rotate(-65.28)"/><ellipse class="cls-1" cx="93.63" cy="105.64" rx="87.7" ry="85.62" transform="translate(-49.11 128.23) rotate(-65.28)"/></g></g></g></svg>