<svg xmlns="http://www.w3.org/2000/svg" xmlns:xlink="http://www.w3.org/1999/xlink" viewBox="0 0 171.24 175.39"><defs><style>.cls-1{fill:none;}.cls-2{fill:url(#linear-gradient);}.cls-3{clip-path:url(#clip-path);}.cls-4{fill:url(#linear-gradient-2);}</style><linearGradient id="linear-gradient" y1="87.7" x2="171.24" y2="87.7" gradientUnits="userSpaceOnUse"><stop offset="0" stop-color="#fdac51"/><stop offset="1" stop-color="#fb0314"/></linearGradient><clipPath id="clip-path" transform="translate(-1.13 -20.53)"><path id="SVGID" class="cls-1" d="M67.61,13c9-.54,36.69-1.83,38.62,5.12.49,1.79-3.87,6.34-12.61,15.36s-12.89,13.32-13,13.4c-12.06,9.27-19.32,4.32-39.4,14.19-10.71,5.25-13.93,9.25-15,13.39-1,3.87-.41,9.21,2.76,11.43,4.65,3.26,12.89-1.61,18-4.63,11.27-6.66,11-11.3,19.83-17,10.76-7,14.1-2.05,27.81-8.7,14.34-7,13.17-13.65,24.59-17.31,9.43-3,25.46-3.34,33.1,7.09,6.38,8.73,4.12,21.15-.4,28.77-8.1,13.64-25.63,15.46-32.31,16.15-11.45,1.19-12.45-2.24-27.58-2-13.21.24-24.29.44-32.7,7.49-10.58,8.86-5.83,19.27-16.15,25.61-8.41,5.15-13.72-.41-25.61,4.73C6.76,130.73-1.53,140.8.24,144.18c1.9,3.63,15.68.09,25.22-2.36,7.68-2,13.88-3.57,20.48-7.1,16.55-8.82,15.8-19.15,28.37-28,18-12.59,45.5-9.77,48.07-2.76,1.92,5.25-8.89,16.25-20.49,20.88C89,130,81.3,124.81,72.74,132c-5.95,5-9.74,13.75-7.1,17.33,2.06,2.8,7.66,1.92,9.85,1.58C85.75,149.28,88,142.66,97.18,138c10.87-5.59,13.58.72,28.11-4.2,11.63-3.93,11.56-8.54,24.28-13.23,3.54-1.31,21.34-7.88,25.61-2.36,5.41,7-8.43,36.58-31.92,46.09-13.65,5.53-24.18,1.69-38.61,12.22-3.61,2.63-12.23,8.93-11,14.58,1.61,7.57,20.51,12.27,35.85,8.27,12.42-3.24,19.88-11.49,26.4-18.91A108,108,0,0,0,180.69,128c4.61-29.17-4.69-51.89-11-67.38-6.92-16.9-12.28-30-26-41.76C112-8.15,70.8,1.53,67.61,2.34,54.27,5.71,41.84,12.68,42.4,14.55,42.85,16.07,51.67,13.92,67.61,13Z"/></clipPath><linearGradient id="linear-gradient-2" y1="87.7" x2="171.24" y2="87.7" gradientUnits="userSpaceOnUse"><stop offset="0" stop-color="#fdac50"/><stop offset="1" stop-color="#fb2b3a"/></linearGradient></defs><title>Asset 7</title><g id="Layer_2" data-name="Layer 2"><g id="Planet_1" data-name="Planet 1"><ellipse class="cls-2" cx="85.62" cy="87.7" rx="85.62" ry="87.7"/><g class="cls-3"><ellipse class="cls-4" cx="85.62" cy="87.7" rx="85.62" ry="87.7"/><ellipse class="cls-1" cx="85.62" cy="87.7" rx="85.62" ry="87.7"/></g></g></g></svg>