<svg xmlns="http://www.w3.org/2000/svg" xmlns:xlink="http://www.w3.org/1999/xlink" viewBox="0 0 175.02 171.72"><defs><style>.cls-1{fill:none;}.cls-2{fill:url(#linear-gradient);}.cls-3{clip-path:url(#clip-path);}.cls-4{fill:url(#linear-gradient-2);}</style><linearGradient id="linear-gradient" x1="-8.94" y1="49.83" x2="162.3" y2="49.83" gradientTransform="translate(137.34 9.18) rotate(90)" gradientUnits="userSpaceOnUse"><stop offset="0" stop-color="#ddeb15"/><stop offset="1" stop-color="#0080c2"/></linearGradient><clipPath id="clip-path"><path id="SVGID" class="cls-1" d="M171.56,37.14c3.4,8.35,13.52,34.16,7.55,38.21-1.53,1.05-7.24-1.62-18.6-7-11.16-5.29-16.74-7.93-16.86-8C131,51.9,133.35,43.43,117.56,27.58c-8.42-8.45-13.24-10.21-17.49-9.88-4,.32-8.85,2.57-9.94,6.29-1.59,5.45,5.67,11.69,10.17,15.56,9.92,8.53,14.24,6.82,22.5,13.3,10.12,7.93,6.47,12.7,17.18,23.54,11.2,11.34,17.15,8.1,24.28,17.73,5.9,8,11.35,23,3.91,33.62-6.21,8.85-18.7,10.7-27.36,8.87-15.52-3.3-22.88-19.31-25.68-25.41-4.8-10.46-1.87-12.52-7-26.75C103.67,72,99.92,61.58,90.55,55.88c-11.8-7.17-20.13.67-29.44-7.07-7.59-6.3-4-13.12-12.71-22.74-7.9-8.74-20.1-13.35-22.73-10.59-2.83,3,5,14.88,10.34,23.12,4.34,6.64,7.83,12,13.3,17.12C63,68.56,72.52,64.53,84.91,73.6c17.69,13,23.86,40,18,44.64-4.35,3.5-18.24-3.2-26.36-12.7C67.57,95,70.05,86,60.52,80.21c-6.61-4-16.15-4.8-18.69-1.15-2,2.85.64,7.86,1.67,9.84,4.81,9.2,11.81,9.24,19.19,16.38,8.79,8.5,3.68,13.1,13,25.28,7.46,9.75,11.8,8.21,20.33,18.74,2.38,2.93,14.32,17.68,10.47,23.49-4.88,7.37-37.36,3.78-53.91-15.41-9.62-11.16-9.36-22.36-24-32.65C25,122.16,16.23,116,11.26,119c-6.66,4-5,23.37,3.68,36.61C22,166.3,32.21,170.71,41.33,174.51a108,108,0,0,0,57.6,6.67c29.1-5,47.63-21.11,60.26-32.09,13.79-12,24.51-21.28,31.2-38,15.44-38.67-7-74.57-8.75-77.33C174.16,22.17,163.57,12.63,162,13.77,160.68,14.68,165.55,22.35,171.56,37.14Z"/></clipPath><linearGradient id="linear-gradient-2" x1="-8.94" y1="49.83" x2="162.3" y2="49.83" gradientTransform="translate(137.34 9.18) rotate(90)" gradientUnits="userSpaceOnUse"><stop offset="0" stop-color="#b3fb4e"/><stop offset="1" stop-color="#50fde9"/></linearGradient></defs><title>Asset 4</title><g id="Layer_2" data-name="Layer 2"><g id="Planet_4" data-name="Planet 4"><ellipse class="cls-2" cx="87.51" cy="85.86" rx="87.7" ry="85.62" transform="translate(-22.94 32.66) rotate(-18.74)"/><g class="cls-3"><ellipse class="cls-4" cx="87.51" cy="85.86" rx="87.7" ry="85.62" transform="translate(-22.94 32.66) rotate(-18.74)"/><ellipse class="cls-1" cx="87.51" cy="85.86" rx="87.7" ry="85.62" transform="translate(-22.94 32.66) rotate(-18.74)"/></g></g></g></svg>