<svg xmlns="http://www.w3.org/2000/svg" xmlns:xlink="http://www.w3.org/1999/xlink" viewBox="0 0 171.79 174.95"><defs><style>.cls-1{fill:none;}.cls-2{fill:url(#linear-gradient);}.cls-3{clip-path:url(#clip-path);}.cls-4{fill:url(#linear-gradient-2);}</style><linearGradient id="linear-gradient" x1="4.03" y1="61.86" x2="175.27" y2="61.86" gradientTransform="translate(186.44 149.33) rotate(180)" gradientUnits="userSpaceOnUse"><stop offset="0" stop-color="#4aeb7d"/><stop offset="1" stop-color="#0080c2"/></linearGradient><clipPath id="clip-path" transform="translate(-10.89)"><path id="SVGID" class="cls-1" d="M147.76,170.18c-8.25,3.62-33.77,14.43-38,8.58-1.08-1.5,1.43-7.28,6.5-18.78,5-11.31,7.48-17,7.55-17.08,8.1-12.86,16.62-10.75,32-27,8.22-8.64,9.85-13.51,9.4-17.75-.42-4-2.8-8.78-6.55-9.77-5.49-1.44-11.53,6-15.27,10.59-8.27,10.15-6.44,14.41-12.69,22.85-7.66,10.33-12.53,6.81-23.07,17.81-11,11.5-7.63,17.36-17.07,24.75-7.8,6.11-22.72,12-33.5,4.82-9-6-11.21-18.4-9.61-27.11,2.88-15.61,18.69-23.39,24.71-26.36,10.33-5.08,12.46-2.21,26.55-7.71,12.31-4.81,22.64-8.84,28.08-18.36,6.85-12-1.21-20.1,6.28-29.62,6.09-7.75,13-4.38,22.38-13.31,8.53-8.13,12.81-20.46,10-23-3-2.75-14.74,5.35-22.84,11-6.52,4.51-11.78,8.15-16.75,13.75-12.46,14-8.18,23.45-16.92,36.07-12.47,18-39.29,24.94-44.13,19.25-3.62-4.25,2.71-18.32,12-26.69C87.15,67.78,96.16,70,101.71,60.34c3.85-6.72,4.36-16.27.64-18.71-2.9-1.91-7.84.85-9.78,1.93-9.07,5.06-8.92,12.06-15.86,19.63-8.26,9-13,4-24.93,13.68-9.54,7.72-7.87,12-18.17,20.83-2.87,2.45-17.29,14.78-23.21,11.09-7.5-4.68-4.78-37.24,14-54.3,10.89-9.92,22.1-10,32-24.84,2.47-3.72,8.38-12.62,5.3-17.5-4.14-6.55-23.5-4.4-36.5,4.67C14.61,24.16,10.48,34.49,6.93,43.71a108,108,0,0,0-5.12,57.76c5.79,28.95,22.39,47,33.71,59.37C47.87,174.29,57.45,184.76,74.39,191c39.07,14.38,74.36-9,77.06-10.84,11.35-7.79,20.6-18.63,19.42-20.2C169.92,158.7,162.39,163.77,147.76,170.18Z"/></clipPath><linearGradient id="linear-gradient-2" x1="4.03" y1="61.86" x2="175.27" y2="61.86" gradientTransform="translate(186.44 149.33) rotate(180)" gradientUnits="userSpaceOnUse"><stop offset="0" stop-color="#50fde9"/><stop offset="1" stop-color="#f1effc"/></linearGradient></defs><title>Asset 5</title><g id="Layer_2" data-name="Layer 2"><g id="Planet_3" data-name="Planet 3"><ellipse class="cls-2" cx="96.79" cy="87.47" rx="85.62" ry="87.7" transform="matrix(0.94, -0.35, 0.35, 0.94, -35.21, 38.98)"/><g class="cls-3"><ellipse class="cls-4" cx="96.79" cy="87.47" rx="85.62" ry="87.7" transform="matrix(0.94, -0.35, 0.35, 0.94, -35.21, 38.98)"/><ellipse class="cls-1" cx="96.79" cy="87.47" rx="85.62" ry="87.7" transform="matrix(0.94, -0.35, 0.35, 0.94, -35.21, 38.98)"/></g></g></g></svg>