<?xml version="1.0" encoding="utf-8"?>
<!-- Generator: Adobe Illustrator 24.0.2, SVG Export Plug-In . SVG Version: 6.00 Build 0)  -->
<svg version="1.1" xmlns="http://www.w3.org/2000/svg" xmlns:xlink="http://www.w3.org/1999/xlink" x="0px" y="0px"
	 viewBox="0 0 544.1 500.2" style="enable-background:new 0 0 544.1 500.2;" xml:space="preserve">
<style type="text/css">
	.st0{display:none;}
	.st1{display:inline;}
	.st2{fill:#FFFFFF;stroke:#000000;stroke-width:4;stroke-miterlimit:10;}
	.st3{fill:#FFFFFF;}
	.st4{fill:none;stroke:#000000;stroke-width:4;stroke-miterlimit:10;}
</style>
<g id="Layer_1" class="st0">
	<title>t-wing</title>
	<g id="Layer_3" class="st1">
		<path class="st2" d="M22.8,296h22.3v17.1H14.9V296H22.8z M37.9,296L31.3,75.5L22.8,296 M22.8,313.1v111.8h18.4V313.1"/>
		<path class="st2" d="M503.6,296h22.3v17.1h-30.2V296H503.6z M518.6,296l-6.5-220.5L503.6,296 M503.6,313.1v111.8h18.3V313.1"/>
		<path class="st3" d="M542.1,320.3v78.8l-213,43.6l-16.5,20.7h-80.9l-17-19.5L2,399.1v-78.8h217.9L260.5,2h20.4l45.9,318.3
			L542.1,320.3z M296.6,248.1l-2.4-20.3l-1.9-16.4l-10.1-87.3h-19.7l-9.2,87.4l-1.7,16.4l-2.2,20.3L296.6,248.1L296.6,248.1z"/>
		<polygon class="st3" points="294.3,227.8 296.6,248.1 249.4,248.1 251.5,227.8 		"/>
		<polygon class="st3" points="292.4,211.4 294.3,227.8 251.5,227.8 253.3,211.4 		"/>
		<polygon class="st3" points="282.2,124.1 292.4,211.4 253.3,211.4 262.5,124.1 		"/>
		<polygon class="st4" points="2,320.3 219.8,320.3 260.5,2 280.9,2 326.8,320.3 542.1,320.3 542.1,399.1 329.1,442.7 312.6,463.4 
			231.7,463.4 214.7,443.9 2,399.1 		"/>
		<polyline class="st4" points="251.5,227.8 249.4,248.1 296.6,248.1 294.3,227.8 		"/>
		<polyline class="st4" points="292.4,211.4 282.2,124.1 262.5,124.1 253.3,211.4 		"/>
		<polygon class="st4" points="251.5,227.8 294.3,227.8 292.4,211.4 253.3,211.4 		"/>
		<path class="st2" d="M213.1,397.1h-38.4c-4.6,0-8.4-3.7-8.4-8.4c0,0,0,0,0,0v-84.8c0-4.6,3.7-8.4,8.4-8.4c0,0,0,0,0,0h38.4
			c4.6,0,8.4,3.7,8.4,8.4c0,0,0,0,0,0v84.8C221.5,393.3,217.7,397.1,213.1,397.1z M178.8,397.1v46.4h30.1v-46.4H178.8z M178.2,443.5
			h-18l21.9,54.3h26.3l19.3-54.3H178.2z"/>
		<path class="st2" d="M370.6,397.5h-38.4c-4.6,0-8.4-3.7-8.4-8.4c0,0,0,0,0,0v-84.8c0-4.6,3.7-8.4,8.4-8.4c0,0,0,0,0,0h38.4
			c4.6,0,8.4,3.7,8.4,8.4c0,0,0,0,0,0v84.8C379,393.7,375.3,397.5,370.6,397.5C370.6,397.5,370.6,397.5,370.6,397.5z M336.3,397.5
			v46.4h30.1v-46.4H336.3z M335.7,443.9h-18l21.9,54.3h26.3l19.3-54.3H335.7L335.7,443.9z"/>
	</g>
</g>
<g id="Layer_2" class="st0">
	<g id="XMLID_1_" class="st1">
		<g>
			<path class="st3" d="M477.6,221.4c0.5,0.2,0.9,0.4,1.4,0.6c0.8,5.8,1.3,11.7,1.6,17.7c-0.2-0.1-0.5-0.2-0.7-0.3l-414.7,0.9
				c-0.6,0.2-1.3,0.5-1.9,0.8c0.3-6.4,0.8-12.8,1.7-19c0.4-0.2,0.7-0.3,1.1-0.5L477.6,221.4z"/>
			<path class="st3" d="M479,222c37.4,17.1,59.8,39,59.8,62.7c0,29.3-34.1,55.7-88.3,73.9c-47.3,15.9-109.9,25.5-178.5,25.5
				c-68.6,0-131.2-9.7-178.5-25.5C39.3,340.4,5.3,314,5.3,284.7c0-23.8,22.4-45.6,59.8-62.7c-0.8,6.2-1.4,12.6-1.7,19
				c-21.6,9-24.8,19.5-24.8,30.7c0,11.1,11.2,21.4,31.1,30.3c0,0,0,0,0,0c39.4,17.5,113.1,29.3,202.3,29.3
				c89.3,0,162.9-11.8,202.3-29.3c19.9-8.9,31.1-19.2,31.1-30.3c0-12.2,0.7-22.6-24.9-32.1C480.4,233.7,479.8,227.8,479,222z"/>
			<path class="st3" d="M63.2,250.1c0-3.1,0.1-6.1,0.2-9.1c0.6-0.3,1.2-0.5,1.9-0.8l414.7-0.9c0.2,0.1,0.5,0.2,0.7,0.3
				c0.2,3.5,0.3,7,0.3,10.5c0,17.9-2.3,35.3-6.5,51.9v0C435,319.6,361.3,331.4,272,331.4c-89.3,0-162.9-11.8-202.3-29.3c0,0,0,0,0,0
				C65.5,285.4,63.2,268,63.2,250.1z"/>
			<path class="st3" d="M450.5,358.6C413.9,418.8,347.7,459,272,459S130.2,418.8,93.6,358.6v0c47.3,15.9,109.9,25.5,178.5,25.5
				C340.7,384.1,403.3,374.5,450.5,358.6z"/>
			<path class="st3" d="M479,222c-0.5-0.2-0.9-0.4-1.4-0.6l-411.5,0.1c-0.4,0.2-0.7,0.3-1.1,0.5c13.7-102,101.2-180.7,207-180.7
				S465.3,119.9,479,222z"/>
		</g>
		<g>
			<path class="st4" d="M450.5,358.6C413.9,418.8,347.7,459,272,459S130.2,418.8,93.6,358.6"/>
			<path class="st4" d="M69.7,302c-4.2-16.6-6.5-34-6.5-51.9c0-3.1,0.1-6.1,0.2-9.1c0.3-6.4,0.8-12.8,1.7-19
				c13.7-102,101.2-180.7,207-180.7S465.3,119.9,479,222c0.8,5.8,1.3,11.7,1.6,17.7c0.2,3.5,0.3,7,0.3,10.5
				c0,17.9-2.3,35.3-6.5,51.9"/>
			<path class="st4" d="M69.9,302.7c-0.1-0.2-0.1-0.5-0.2-0.7"/>
			<path class="st4" d="M66.2,221.5c-0.4,0.2-0.7,0.3-1.1,0.5c-37.4,17.1-59.8,38.9-59.8,62.7c0,29.3,34.1,55.7,88.3,73.9
				c47.3,15.9,109.9,25.5,178.5,25.5c68.6,0,131.2-9.7,178.5-25.5c54.2-18.2,88.3-44.6,88.3-73.9c0-23.8-22.4-45.6-59.8-62.7
				c-0.5-0.2-0.9-0.4-1.4-0.6"/>
			<path class="st4" d="M479.9,239.4c0.2,0.1,0.5,0.2,0.7,0.3c25.5,9.4,24.9,19.9,24.9,32.1c0,11.1-11.2,21.4-31.1,30.3
				C435,319.6,361.3,331.4,272,331.4c-89.3,0-162.9-11.8-202.3-29.3c0,0,0,0,0,0c-20-8.9-31.1-19.2-31.1-30.3
				c0-11.2,3.2-21.8,24.8-30.7c0.6-0.3,1.2-0.5,1.9-0.8"/>
		</g>
	</g>
</g>
<g id="Layer_3_1_">
	<path class="st2" d="M358.2,250.1c29.3,0,53,31.5,53,70.3s-23.7,70.3-53,70.3 M358.2,359.8c16.4,0,29.7-17.6,29.7-39.4
		S374.6,281,358.2,281 M158.3,217.3c0,0,0,148.3,0,188.3s196.4,42,196.4,0s0-188.3,0-188.3 M256.6,188.2c-54.2,0-98.2,13-98.2,29.1
		c0,2.4,0.9,4.6,2.7,6.8c10.4,12.8,49.2,22.2,95.5,22.2c54.2,0,98.2-13,98.2-29.1S310.8,188.2,256.6,188.2z"/>
	<path class="st4" d="M227,61.9c-44.8-3.2-52.1,45-19.6,48.8s38.8,48,3.1,60.2"/>
	<path class="st4" d="M267.9,61.9c-44.8-3.2-52.1,45-19.6,48.8s38.8,48,3.1,60.2"/>
	<path class="st4" d="M307.6,61.6c-44.8-3.2-52.1,45-19.6,48.8c32.5,3.7,38.8,48,3.1,60.2"/>
</g>
</svg>
